<svg width="475" height="475" viewBox="0 0 475 475" fill="none" xmlns="http://www.w3.org/2000/svg">
<path fill-rule="evenodd" clip-rule="evenodd" d="M373.752 97.9197L296.309 175.363L297.016 176.07L374.449 98.6366C408.273 133.592 429.087 181.214 429.087 233.697C429.087 287.308 407.368 335.847 372.249 370.994L299.459 298.204L298.752 298.911L371.541 371.699C336.442 406.469 288.15 427.942 234.842 427.942C182.866 427.942 135.658 407.529 100.799 374.281L176.07 299.011L175.362 298.304L100.077 373.589C63.4078 338.256 40.5961 288.64 40.5961 233.697C40.5961 180.896 61.6634 133.015 95.8507 98.0027L175.811 177.963L176.518 177.256L96.5512 97.289C131.774 61.5828 180.723 39.4512 234.842 39.4512C289.278 39.4512 338.484 61.8436 373.752 97.9197ZM374.88 96.791C339.324 60.4261 289.719 37.8551 234.842 37.8551C180.283 37.8551 130.935 60.1653 95.4225 96.1603L1.15565 1.89346L0.448542 2.60057L94.722 96.874C60.2459 132.176 39 180.455 39 233.697C39 289.081 61.9903 339.096 98.9481 374.718L0 473.666L0.707107 474.373L99.67 375.41C134.819 408.946 182.425 429.538 234.842 429.538C288.59 429.538 337.282 407.886 372.669 372.828L474.115 474.273L474.822 473.566L373.378 372.122C408.786 336.686 430.683 287.749 430.683 233.697C430.683 180.773 409.69 132.752 375.578 97.5079L472.378 0.707137L471.671 3.05176e-05L374.88 96.791Z" fill="#D6B47E" fill-opacity="0.05"/>
</svg>
